<?xml version="1.0" standalone="no"?>
<!DOCTYPE svg PUBLIC "-//W3C//DTD SVG 20010904//EN"
 "http://www.w3.org/TR/2001/REC-SVG-20010904/DTD/svg10.dtd">
<svg version="1.0" xmlns="http://www.w3.org/2000/svg"
 width="450.000000pt" height="450.000000pt" viewBox="0 0 450.000000 450.000000"
 preserveAspectRatio="xMidYMid meet">

<g transform="translate(0.000000,450.000000) scale(0.100000,-0.100000)"
fill="#0c5ecb" stroke="none">
<path d="M1582 3437 c-88 -32 -140 -108 -149 -217 l-6 -69 -202 -3 -202 -3
-48 -30 c-36 -22 -57 -45 -77 -84 l-28 -53 0 -588 0 -588 28 -53 c17 -34 44
-65 71 -84 l43 -30 579 -3 c318 -1 579 -5 579 -8 0 -4 -18 -28 -41 -55 l-41
-49 -39 31 c-26 20 -43 28 -53 22 -21 -11 -76 -83 -76 -98 0 -17 510 -425 531
-425 14 0 59 49 83 88 5 9 -5 26 -32 50 l-39 37 94 118 c82 103 97 117 124
117 17 0 39 5 51 11 11 6 190 224 399 486 373 468 379 476 379 520 0 39 -5 50
-36 79 l-35 34 20 29 c29 40 26 55 -16 89 l-37 29 34 44 c19 24 70 88 113 142
79 98 91 129 51 135 -16 2 -45 -29 -130 -137 -60 -77 -112 -140 -116 -140 -3
-1 -20 10 -36 24 -17 14 -39 25 -51 25 -11 0 -28 -11 -37 -25 -20 -30 -27 -31
-63 -4 -20 14 -43 21 -71 21 -48 -1 -73 -20 -143 -111 l-42 -54 -5 164 c-6
176 -13 203 -69 262 -53 58 -69 62 -291 67 l-205 5 -6 70 c-8 103 -50 168
-134 206 -36 17 -69 19 -315 18 -185 0 -286 -4 -308 -12z m605 -63 c59 -28 87
-76 91 -155 l4 -69 -45 0 -45 0 -6 45 c-8 53 -46 102 -93 121 -50 21 -359 19
-413 -2 -49 -20 -78 -59 -88 -116 l-8 -43 -44 0 -45 0 1 62 c1 73 27 119 84
152 33 19 51 21 303 21 229 0 274 -2 304 -16z m-107 -119 c29 -15 57 -75 45
-95 -4 -6 -92 -10 -241 -10 l-234 0 0 28 c0 33 24 70 54 82 11 5 94 9 184 9
125 1 170 -2 192 -14z m685 -190 c72 -42 80 -69 83 -295 l2 -195 -291 -364
-291 -364 4 -46 c2 -36 -2 -53 -20 -78 l-23 -33 -593 0 -593 0 -33 23 c-18 12
-43 35 -54 50 -21 28 -21 35 -21 626 l0 598 29 37 c52 69 4 65 925 66 l834 0
42 -25z m520 -433 c110 -87 161 -134 163 -150 3 -21 -53 -111 -69 -112 -3 0
-27 16 -52 36 -81 63 -109 18 -32 -51 44 -40 45 -40 26 -62 l-19 -23 -43 35
c-48 38 -76 44 -86 18 -5 -12 7 -29 42 -60 l49 -43 -21 -21 -21 -22 -45 37
c-50 41 -59 43 -78 20 -12 -15 -7 -22 38 -63 l51 -46 -18 -23 -19 -23 -107 86
c-71 57 -114 85 -128 83 -46 -7 -27 -36 83 -123 61 -49 111 -91 111 -95 0 -4
-9 -15 -19 -25 -19 -17 -22 -16 -64 19 -48 40 -59 43 -76 22 -16 -19 -6 -37
39 -70 44 -33 47 -41 24 -67 -16 -17 -18 -17 -60 17 -46 38 -77 41 -82 9 -2
-15 11 -31 43 -55 25 -18 45 -37 45 -40 0 -4 -9 -15 -20 -25 -18 -17 -21 -16
-57 12 -52 41 -59 44 -77 37 -28 -11 -17 -41 29 -75 24 -19 45 -37 45 -40 0
-4 -8 -16 -17 -27 -18 -21 -19 -21 -123 64 -106 85 -145 101 -145 59 0 -13 37
-49 108 -107 l108 -87 -54 -63 c-29 -35 -63 -64 -74 -66 -15 -2 -71 37 -188
130 -146 116 -166 136 -163 158 2 14 163 225 373 488 315 395 372 462 394 462
18 0 74 -39 186 -128z m61 77 c52 -41 62 -54 53 -65 -9 -12 -15 -11 -38 5 -62
45 -104 88 -97 99 11 17 12 17 82 -39z m-888 -1105 c72 -58 132 -109 132 -114
0 -4 -40 -57 -88 -118 l-89 -111 -137 110 c-95 77 -134 114 -129 123 14 23
168 215 173 215 3 1 65 -47 138 -105z m-228 -275 c252 -199 237 -186 224 -199
-6 -6 -86 52 -229 166 -195 155 -247 204 -218 204 4 0 105 -77 223 -171z"/>
<path d="M1762 2748 c-8 -8 -12 -48 -12 -115 l0 -103 -103 0 c-67 0 -107 -4
-115 -12 -17 -17 -17 -239 0 -256 8 -8 48 -12 115 -12 l103 0 0 -103 c0 -67 4
-107 12 -115 13 -13 212 -17 242 -6 13 5 16 25 16 115 l0 109 99 0 c55 0 106
3 115 6 24 9 24 259 0 268 -9 3 -60 6 -115 6 l-99 0 0 109 c0 90 -3 110 -16
115 -30 11 -229 7 -242 -6z m198 -147 c0 -55 3 -106 6 -115 5 -13 25 -16 115
-16 l109 0 0 -80 0 -80 -109 0 c-90 0 -110 -3 -115 -16 -3 -9 -6 -60 -6 -115
l0 -100 -72 3 -73 3 -5 110 -5 110 -110 5 -110 5 0 75 0 75 110 5 110 5 3 100
c1 55 4 106 7 113 3 8 28 12 75 12 l70 0 0 -99z"/>
</g>
</svg>
